<?xml version="1.0" encoding="UTF-8" standalone="no"?>
<!-- Created with Inkscape (http://www.inkscape.org/) -->

<svg
   xmlns:dc="http://purl.org/dc/elements/1.1/"
   xmlns:cc="http://creativecommons.org/ns#"
   xmlns:rdf="http://www.w3.org/1999/02/22-rdf-syntax-ns#"
   xmlns:svg="http://www.w3.org/2000/svg"
   xmlns="http://www.w3.org/2000/svg"
   xmlns:sodipodi="http://sodipodi.sourceforge.net/DTD/sodipodi-0.dtd"
   xmlns:inkscape="http://www.inkscape.org/namespaces/inkscape"
   id="svg4688"
   version="1.1"
   inkscape:version="0.91 r13725"
   width="400.57602"
   height="400"
   viewBox="0 0 400.57602 400"
   sodipodi:docname="lens2.svg">
  <metadata
     id="metadata4694">
    <rdf:RDF>
      <cc:Work
         rdf:about="">
        <dc:format>image/svg+xml</dc:format>
        <dc:type
           rdf:resource="http://purl.org/dc/dcmitype/StillImage" />
        <dc:title></dc:title>
      </cc:Work>
    </rdf:RDF>
  </metadata>
  <defs
     id="defs4692" />
  <sodipodi:namedview
     pagecolor="#ffffff"
     bordercolor="#666666"
     borderopacity="1"
     objecttolerance="10"
     gridtolerance="10"
     guidetolerance="10"
     inkscape:pageopacity="0"
     inkscape:pageshadow="2"
     inkscape:window-width="1366"
     inkscape:window-height="705"
     id="namedview4690"
     showgrid="false"
     fit-margin-top="0"
     fit-margin-left="0"
     fit-margin-right="0"
     fit-margin-bottom="0"
     inkscape:zoom="0.88705489"
     inkscape:cx="113.73699"
     inkscape:cy="166.96028"
     inkscape:window-x="-8"
     inkscape:window-y="-8"
     inkscape:window-maximized="1"
     inkscape:current-layer="svg4688" />
  <path
     style="fill:#000000"
     d="m 242.63158,390.37939 c -14.53941,3.06156 -20.55111,3.82803 -30.17643,3.83684 -6.17964,0.005 -11.91301,-0.63192 -12.72982,-1.42249 -0.82506,-0.78491 -5.01321,-7.99901 -9.30148,-16.03505 -12.62379,-23.61219 -20.65127,-49.6779 -24.05867,-78.12675 -2.07533,-17.31002 -1.80633,-48.60363 0.55551,-65.9009 l 1.82448,-13.27244 9.441,15.10305 c 30.43521,48.62306 62.23825,82.21978 92.79527,98.00095 8.31367,4.30034 21.30845,7.99463 25.92803,7.36928 3.73522,-0.50259 3.72934,0.55453 -0.0715,6.44939 -11.2747,17.4816 -23.15512,28.6564 -39.47782,37.12875 -6.72169,3.48988 -13.3512,6.58218 -14.72853,6.86936 z"
     id="l5"
     inkscape:connector-curvature="0"
     inkscape:transform-center-x="-32.38379"
     inkscape:transform-center-y="104.86017"
     inkscape:label="#path5254" />
  <path
     style="fill:#000000"
     d="m 333.39159,342.54549 c -31.85582,-8.38024 -57.58236,-21.43974 -83.74513,-42.49336 -7.73879,-6.22736 -17.83066,-15.14532 -22.4282,-19.81642 -8.56738,-8.68714 -27.03029,-30.81769 -28.73508,-34.43941 -0.71465,-1.51095 1.87634,-1.33089 10.36298,0.71884 72.24424,17.45666 132.32842,15.5877 159.43702,-4.95573 l 6.88692,-5.21896 1.17948,4.3959 c 1.9232,7.17515 4.21494,29.5988 3.61333,35.42989 -2.29277,22.24786 -10.02652,39.6877 -24.86526,56.07589 -10.80714,11.93331 -12.48954,12.73182 -21.70604,10.30338 z"
     id="l4"
     inkscape:connector-curvature="0"
     inkscape:transform-center-x="-89.267125"
     inkscape:transform-center-y="88.019379"
     inkscape:label="#path5252" />
  <path
     style="fill:#000000"
     d="m 160.37641,374.76339 c -27.44951,5.14012 -50.50417,1.20747 -72.215186,-12.3339 -7.308064,-4.54706 -23.215808,-18.87667 -24.87852,-22.40109 -1.010299,-2.14036 5.7948,-25.7927 11.107589,-38.59802 7.685017,-18.52387 17.126006,-34.34556 31.064657,-52.07286 17.22617,-21.90679 27.22409,-31.56435 56.25917,-54.34199 1.82948,-1.43521 1.63485,0.85466 -0.97691,11.35495 -11.07169,44.53016 -14.7814,93.77531 -9.25506,122.83026 3.01595,15.86664 11.41324,34.8906 18.30259,41.46961 2.0206,1.93607 1.95546,1.9648 -9.40833,4.09304 z"
     id="l6"
     inkscape:connector-curvature="0"
     inkscape:transform-center-x="82.961436"
     inkscape:transform-center-y="83.804617"
     inkscape:label="#path5250" />
  <path
     style="fill:#000000"
     d="m 350.13382,230.26253 c -12.78339,4.20067 -32.85008,8.65105 -47.187,10.46454 -18.16977,2.29709 -50.98112,2.0704 -69.06162,-0.47496 l -11.85315,-1.66311 13.44388,-8.11576 c 26.39882,-15.93692 57.62433,-40.63237 74.97811,-59.29663 19.07838,-20.51986 32.02245,-44.44988 32.60153,-60.26112 l 0.14942,-4.02591 4.76776,2.80722 c 8.58923,5.06011 22.25801,16.99101 29.33873,25.59168 8.88755,10.80909 16.83979,29.03762 18.75847,43.00923 1.35931,9.89988 1.45941,24.4523 0.18843,28.09289 -0.60329,1.74323 -5.65976,4.67578 -21.3624,12.38874 -11.3145,5.55772 -22.45871,10.72602 -24.76216,11.48318 z"
     id="l3"
     inkscape:connector-curvature="0"
     inkscape:transform-center-x="-109.64432"
     inkscape:transform-center-y="-27.374955"
     inkscape:label="#path5248" />
  <path
     style="fill:#000000"
     d="M 54.570085,297.20141 C 47.152941,292.72506 35.124479,282.68718 28.362794,275.31865 19.806184,266.00785 9.7179184,245.46067 7.4448928,232.72738 5.839172,223.70915 5.3818005,204.08499 6.7077481,201.2356 c 0.4585673,-0.97872 6.2265369,-5.03384 12.8287089,-9.01888 21.144393,-12.76206 50.160756,-21.88996 81.736143,-25.7158 18.68719,-2.26576 48.46181,-2.0742 66.59248,0.4205 l 12.31952,1.6905 -14.14253,9.07958 c -45.84583,29.43225 -76.387462,56.83685 -92.645589,83.13112 -6.759584,10.93004 -13.451479,28.49612 -13.360796,35.05931 0.05867,4.18931 -0.482193,4.31896 -5.4656,1.31948 z"
     id="l7"
     inkscape:connector-curvature="0"
     inkscape:transform-center-x="106.89016"
     inkscape:transform-center-y="30.114539"
     inkscape:label="#path5246" />
  <path
     style="fill:#000000"
     d="M 241.676,203.92551 C 252.07312,159.89715 256.37358,115.60461 252.92904,88.095977 250.2167,66.511419 242.46257,45.642879 234.20896,37.700561 l -2.55685,-2.456855 5.19409,-1.46939 c 8.65323,-2.448324 26.98415,-3.922687 37.27937,-3.001336 20.49412,1.843387 40.21624,11.02623 55.79397,25.954885 4.5352,4.348676 8.70564,8.872354 9.2676,10.052592 0.56194,1.180267 0.2644,5.361664 -0.70446,9.321434 -11.40453,46.901309 -40.4717,90.378589 -84.03147,125.689149 -6.58718,5.33925 -12.63238,10.01762 -13.42916,10.39326 -0.80507,0.38122 -0.50706,-3.33771 0.65395,-8.25879 z"
     id="l2"
     inkscape:connector-curvature="0"
     inkscape:transform-center-x="-85.612431"
     inkscape:transform-center-y="-80.623599"
     inkscape:label="#path5244" />
  <path
     style="fill:#000000"
     d="M 228.02842,177.97552 C 216.6206,157.96018 194.84872,128.68059 178.21116,111.00599 166.17716,98.206661 148.89923,83.997112 137.95654,77.897756 128.39541,72.565417 113.97401,67.593919 107.39964,67.356741 l -4.57593,-0.163202 1.63863,-3.278476 c 3.29303,-6.569349 17.99426,-24.083062 25.29516,-30.133043 10.1009,-8.369581 27.20385,-16.442543 40.13759,-18.948214 11.21541,-2.16844 28.57662,-2.579599 32.41966,-0.756877 2.19003,1.030216 4.71791,5.576064 13.94098,25.101812 9.79798,20.724968 11.72504,25.703233 14.71998,38.110831 5.00303,20.648798 7.43913,42.822548 7.15682,65.055448 -0.20447,16.2546 -2.22067,39.19268 -3.90175,44.45154 -0.22987,0.72829 -3.02754,-3.23666 -6.20235,-8.82103 z"
     id="l1"
     inkscape:connector-curvature="0"
     inkscape:transform-center-x="29.459322"
     inkscape:transform-center-y="-102.07244"
     inkscape:label="#path5242" />
  <path
     style="fill:#000000"
     d="m 180.79139,158.10014 c -52.97594,-12.22613 -98.16293,-14.10137 -129.718693,-5.39752 -7.924461,2.18598 -24.678988,10.59282 -29.135116,14.61986 -1.969698,1.77998 -2.144283,1.6125 -3.47184,-3.46261 C 15.95986,154.31949 14.52775,133.28215 15.796258,124.59336 18.733246,104.357 27.401808,86.371131 41.187768,71.901144 51.756143,60.807417 52.695049,60.551575 67.787986,64.626107 106.138,74.990885 147.69504,101.9291 177.05631,135.45824 c 6.71008,7.66579 21.67217,26.46881 21.13726,26.57168 -0.10669,0.021 -7.94051,-1.74536 -17.40218,-3.92978 z"
     id="l8"
     inkscape:connector-curvature="0"
     inkscape:transform-center-x="85.21043"
     inkscape:transform-center-y="-85.102469"
     inkscape:label="#path5238" />
</svg>
