<?xml version="1.0" encoding="UTF-8" standalone="no"?>
<!-- Created with Inkscape (http://www.inkscape.org/) -->

<svg
   xmlns:dc="http://purl.org/dc/elements/1.1/"
   xmlns:cc="http://creativecommons.org/ns#"
   xmlns:rdf="http://www.w3.org/1999/02/22-rdf-syntax-ns#"
   xmlns:svg="http://www.w3.org/2000/svg"
   xmlns="http://www.w3.org/2000/svg"
   xmlns:sodipodi="http://sodipodi.sourceforge.net/DTD/sodipodi-0.dtd"
   xmlns:inkscape="http://www.inkscape.org/namespaces/inkscape"
   id="svg4136"
   version="1.1"
   inkscape:version="0.91 r13725"
   width="1000"
   height="526.25"
   viewBox="0 0 1000 526.25"
   sodipodi:docname="ojos.svg">
  <metadata
     id="metadata4142">
    <rdf:RDF>
      <cc:Work
         rdf:about="">
        <dc:format>image/svg+xml</dc:format>
        <dc:type
           rdf:resource="http://purl.org/dc/dcmitype/StillImage" />
        <dc:title></dc:title>
      </cc:Work>
    </rdf:RDF>
  </metadata>
  <defs
     id="defs4140" />
  <sodipodi:namedview
     pagecolor="#ffffff"
     bordercolor="#666666"
     borderopacity="1"
     objecttolerance="10"
     gridtolerance="10"
     guidetolerance="10"
     inkscape:pageopacity="0"
     inkscape:pageshadow="2"
     inkscape:window-width="1366"
     inkscape:window-height="705"
     id="namedview4138"
     showgrid="false"
     inkscape:zoom="0.1875"
     inkscape:cx="-140.42747"
     inkscape:cy="688.91058"
     inkscape:window-x="-8"
     inkscape:window-y="-8"
     inkscape:window-maximized="1"
     inkscape:current-layer="svg4136" />
  <path
     style="fill:#000000"
     d="m 723.46534,496.62486 c -1.73289,-22.32726 1.51119,-46.25666 9.08407,-67.00681 12.69177,-34.77629 40.12252,-60.49736 80.74473,-75.71216 11.25526,-4.21558 26.83546,-8.50302 37.49756,-10.31877 8.1838,-1.3937 39.5616,-0.83927 45.429,0.8027 6.262,1.7524 7.7751,0.62845 10.3798,-7.71038 0.8067,-2.58255 1.7152,-4.44713 2.0188,-4.14348 0.3036,0.30365 -0.4063,3.43746 -1.5776,6.96404 -1.1714,3.52657 -1.8316,6.71005 -1.4673,7.07439 0.3643,0.36433 2.5005,0.74977 4.7472,0.85652 3.7958,0.18036 4.345,-0.32702 7.7655,-7.17427 2.0245,-4.0526 4.4437,-9.95885 5.3761,-13.125 l 1.6952,-5.75664 -0.5908,5.89301 c -0.325,3.24116 -1.755,9.14741 -3.1778,13.125 -1.4228,3.9776 -2.7019,7.86419 -2.8425,8.63689 -0.1406,0.77269 4.7755,4.00411 10.9246,7.18095 8.433,4.3567 11.4504,5.39371 12.2794,4.2201 2.3341,-3.30425 7.5928,-15.31945 9.1058,-20.80531 0.8723,-3.16285 1.6363,-4.57308 1.6978,-3.13383 0.1391,3.2575 -3.663,14.45618 -7.3855,21.75278 l -2.8055,5.49931 3.5889,2.87185 c 1.9739,1.5795 3.8701,2.87252 4.2139,2.87337 1.1396,0.002 12.0631,-14.26463 15.589,-20.36125 1.9076,-3.29841 4.5392,-9.20466 5.8479,-13.125 2.012,-6.02683 2.2601,-6.3558 1.6064,-2.12962 -1.2874,8.32222 -10.0175,26.67067 -17.2484,36.25175 -1.7492,2.31775 -1.5508,2.85859 2.7216,7.41889 4.5948,4.90433 4.5962,4.90895 0.4501,1.5625 -2.2872,-1.84602 -5.1727,-3.35639 -6.4124,-3.35639 -2.5613,0 -12.5542,12.52264 -12.5542,15.7324 0,1.78229 0.911,1.96881 6.1937,1.26805 7.5923,-1.00715 16.4986,-4.01878 18.1813,-6.14794 0.6875,-0.86991 3.317,-2.84355 5.8434,-4.38587 7.3008,-4.45708 17.9225,-16.84494 22.796,-26.5864 2.4671,-4.93138 4.4856,-8.31245 4.4856,-7.51353 0,2.49865 -8.5717,18.93036 -13.076,25.06654 -7.3804,10.05402 -16.4188,17.49215 -27.6524,22.75643 -5.8276,2.73088 -10.5123,5.63352 -10.4105,6.45029 0.6241,5.00699 -0.5823,8.80969 -4.0467,12.75539 -4.3582,4.96373 -9.591,8.10464 -13.5024,8.10464 -1.8956,0 -2.562,0.80824 -2.562,3.10706 0,5.91128 -2.845,15.07508 -8.9312,28.76794 -3.3614,7.5625 -6.1144,14.875 -6.1177,16.25 -0.011,4.61699 -4.676,12.91925 -8.2904,14.75479 -19.1216,9.71069 -84.9503,-7.90535 -138.53573,-37.07275 -6.33456,-3.448 -23.125,-18.57012 -23.125,-20.82725 0,-3.12794 -2.63383,-0.67049 -5.04559,4.70771 -7.51157,16.75066 -10.06439,29.66666 -11.05591,55.9375 l -0.80203,21.25 z M 895.2221,482.00525 c 6.8844,-1.91254 11.6892,-8.03559 19.935,-25.40455 7.6009,-16.01058 7.6074,-16.0344 7.6795,-27.80869 0.064,-10.48651 -0.2832,-12.39067 -3.1542,-17.28957 -7.0674,-12.05965 -22.6476,-21.23735 -41.7101,-24.5698 -4.9882,-0.87203 -9.29,-1.35423 -9.5595,-1.07156 -0.2696,0.28266 0.042,3.87345 0.6928,7.97953 4.3183,27.25291 -11.6452,56.93935 -37.5444,69.81906 -5.0767,2.52468 -10.3267,4.59033 -11.6666,4.59033 -5.44007,0 -0.8235,3.25549 8.4944,5.99013 26.1807,7.68356 55.0519,11.03801 66.8331,7.76512 z m -74.7035,-16.35944 c 11.92,-3.99352 19.8598,-9.11026 28.5696,-18.41149 8.7028,-9.29371 13.6523,-18.0865 16.639,-29.55945 2.1075,-8.09542 2.5751,-23.98541 0.7889,-26.80678 -1.3078,-2.06579 -16.938,-1.28837 -26.725,1.32926 l -5.8371,1.56119 -0.1263,7.55822 C 833.625,413.4521 833.3389,417 832.5634,417 c -0.4006,0 -2.5156,2.22401 -4.7,4.94226 l -3.9717,4.94226 4.075,4.69657 4.075,4.69657 -4.7546,-3.58836 c -4.7147,-3.55825 -4.7919,-3.57058 -9.1968,-1.47 -3.48532,1.66202 -4.29743,2.67226 -3.76989,4.68959 0.63242,2.41841 0.53642,2.44818 -1.6152,0.50098 -2.70453,-2.44756 -10.5278,-1.55447 -14.15483,1.61587 -2.04227,1.78513 -2.17175,1.77785 -1.45805,-0.082 1.12337,-2.92745 -8.6449,-5.60142 -11.70857,-3.2051 -1.79906,1.40718 -1.88851,1.37376 -0.6386,-0.23863 1.19447,-1.54087 0.48469,-2.53499 -3.98306,-5.57854 -2.99012,-2.03695 -6.02276,-4.99007 -6.7392,-6.5625 -0.71646,-1.57243 -2.12078,-2.85897 -3.12074,-2.85897 -3.35274,0 -14.48549,15.72047 -14.48549,20.45485 0,3.25645 31.53466,20.11895 51.25,27.40486 3.21116,1.18671 4.84409,0.96895 12.85193,-1.7139 z m 3.6172,-57.89183 c 2.967,-3.54922 2.8261,-6.88743 -0.437,-10.36092 -3.3544,-3.57051 -5.612,-3.68611 -6.6734,-0.3417 -0.4826,1.52032 -2.29512,2.84841 -4.48528,3.28645 -4.48579,0.89715 -5.34246,2.12333 -4.32258,6.18689 1.01059,4.0265 7.67624,7.0931 11.25486,5.1779 1.3562,-0.72581 3.4547,-2.50269 4.6634,-3.94862 z m 116.8529,-28.40599 c 7.1402,-5.50863 8.1111,-7.74303 4.2601,-9.80401 -4.2188,-2.25788 -6.0075,-1.44609 -10.6007,4.811 -8.0518,10.96872 -4.7624,13.55894 6.3406,4.99301 z m -16.6774,1.25602 c 3.9248,-2.00667 13.3554,-11.3374 13.3554,-13.21386 0,-1.66779 -8.7382,-6.67305 -11.5127,-6.59451 -1.4188,0.0401 -4.9496,4.65824 -10.9269,14.29142 -3.3122,5.33815 2.5138,8.87637 9.0842,5.51695 z m -9.1446,-11.21749 c 8.7888,-5.23137 9.9746,-10.12594 3.0099,-12.42449 -2.4855,-0.82031 -4.9448,-1.00309 -5.5085,-0.40945 -4.5513,4.79237 -10.0014,12.25298 -10.0014,13.69068 0,2.67753 7.4163,2.16921 12.5,-0.85674 z m -24.1229,-5.71408 c 4.8863,-5.24703 7.8144,-10.89753 6.387,-12.325 -1.5363,-1.5363 -31.3292,-3.25306 -39.7641,-2.29134 l -9.375,1.0689 -0.3888,6.12906 c -0.2574,4.05693 0.1652,6.48044 1.25,7.16837 0.9013,0.57161 5.3925,1.04791 9.9804,1.05843 7.1661,0.0164 8.8835,-0.4369 12.1875,-3.21697 l 3.8459,-3.23613 0,4.23613 c 0,5.21823 1.8754,7.23611 6.7251,7.23611 2.8248,0 5.0368,-1.40849 9.152,-5.82756 z m -51.3573,-2.1932 C 844.447,355.96965 845.2124,352 841.5142,352 c -2.6511,0 -21.2276,6.10789 -27.01987,8.88405 -2.01965,0.96799 -3.8713,2.7944 -4.11477,4.05869 -0.4107,2.1326 0.47938,2.2674 12.31704,1.86548 l 12.7597,-0.43322 z m 63.5635,1.1041 c 5.6168,-5.61683 5.8924,-9.33334 0.6921,-9.33334 -3.0807,0 -4.1612,0.85584 -6.25,4.9502 -4.8707,9.54726 -1.9274,11.86842 5.5579,4.38314 z M 272.66667,393.29035 C 210.24259,387.11956 149.65679,363.33544 109.09887,329.07866 96.67419,318.5843 87.20331,307.71372 77.88352,293.25 74.11807,287.40625 68.53575,279.83044 65.47838,276.41486 56.92935,266.86424 45.70062,249.18079 37.67247,232.625 30.56921,217.97655 19.55122,189.69877 20.5556,188.6944 c 0.27735,-0.27735 1.7592,2.93753 3.29301,7.14415 4.29877,11.78977 15.33601,33.04301 23.87223,45.96819 11.34043,17.17121 27.44583,33.51591 27.44583,27.85365 0,-0.5993 -2.87498,-5.49364 -6.38883,-10.87633 -20.69246,-31.69767 -31.26323,-55.22109 -38.08385,-84.749 -3.42761,-14.83886 -3.46636,-19.22977 -0.0594,-6.72522 6.0735,22.29118 21.53727,57.32592 33.0548,74.88898 7.29842,11.12935 15.03799,20.06568 16.56247,19.12349 1.24955,-0.77226 -6.98843,-19.41862 -9.20019,-20.82431 -0.83053,-0.52785 -1.11595,-0.96834 -0.63426,-0.97886 0.48169,-0.01 -1.88506,-6.21538 -5.25945,-13.78856 -9.74206,-21.86423 -21.69905,-59.93954 -19.51043,-62.12817 0.28871,-0.2887 1.14079,2.34678 1.89352,5.85662 4.28453,19.97807 27.53939,68.03686 31.6828,65.47608 0.79982,-0.49431 0.96059,-0.22522 0.40374,0.67578 -1.07093,1.7328 3.37094,8.11945 11.61586,16.70161 9.12832,9.50169 9.90712,7.44759 2.48814,-6.5625 -3.64063,-6.875 -7.37154,-12.5 -8.29092,-12.5 -0.91938,0 -1.31816,-0.57188 -0.88618,-1.27083 0.43198,-0.69896 -1.46352,-7.02708 -4.21222,-14.0625 C 71.52211,195.34104 65.8004,170.71553 63.42922,145.125 c -0.56491,-6.09669 -0.0171,-4.68935 2.92783,7.52157 1.99252,8.26187 6.12498,22.60562 9.18325,31.875 C 81.37539,202.20714 92.23492,227 94.14634,227 c 1.49564,0 11.02033,-4.88714 11.02033,-5.65455 0,-0.33205 -2.53125,-8.10339 -5.625,-17.26963 C 92.71903,183.86154 92.17468,178.71296 98.79356,197 c 2.61277,7.21875 5.95723,15.48907 7.43211,18.37849 l 2.6816,5.25348 5.3172,-2.40866 c 2.92446,-1.32476 5.24701,-3.12634 5.16121,-4.00349 -0.0858,-0.87715 -1.36805,-6.63115 -2.84946,-12.78666 -4.35915,-18.11297 -6.36955,-34.56764 -6.36955,-52.13326 0,-9.05661 0.28585,-16.18071 0.63523,-15.83133 0.34938,0.34937 1.21428,5.36501 1.92201,11.14583 2.66347,21.7558 12.09161,63.78445 14.94967,66.64251 0.77988,0.77988 4.43683,0.19407 10.289,-1.64821 4.9935,-1.57196 10.90721,-3.40811 13.14159,-4.08035 4.57344,-1.37595 4.55001,-1.25171 2.9103,-15.43614 -1.10876,-9.59133 -2.83666,-57.62504 -1.79746,-49.96721 6.00401,44.24333 8.53273,59.10869 10.38016,61.02091 0.54247,0.5615 4.48973,0.2973 8.77165,-0.58712 l 7.78532,-1.60803 -0.67777,-19.41288 -0.67777,-19.41288 1.74064,10 c 0.95736,5.5 2.12724,13.18123 2.59975,17.06938 0.47253,3.88816 1.29295,7.77131 1.82318,8.62923 0.75949,1.22888 4.95159,0.9887 19.75609,-1.13187 10.33562,-1.48045 22.06161,-2.70035 26.05773,-2.71088 3.99612,-0.01 7.92277,-0.43715 8.72587,-0.94803 1.54156,-0.98068 4.02665,-19.7894 4.36616,-33.04607 0.11238,-4.38785 0.8028,0.97574 1.5625,12.13824 l 1.36115,20 4.0625,0.3917 4.0625,0.3917 0.0137,-6.0167 c 0.008,-3.30919 0.41378,-8.2667 0.9027,-11.0167 0.82121,-4.61899 0.98686,-4.19035 2.17375,5.625 l 1.28479,10.625 23.125,0.85011 c 12.71875,0.46755 25.51562,1.10159 28.4375,1.40895 3.43232,0.36107 5.31927,0.0601 5.33164,-0.85011 0.0141,-1.03852 0.26058,-1.03651 0.9375,0.007 0.8565,1.32123 15.11253,4.93325 15.80725,4.00506 0.66586,-0.88962 5.63337,-14.45803 7.47657,-20.4217 1.85521,-6.00253 6.14326,-24.68195 7.46071,-32.5 0.34755,-2.0625 0.39495,1.03125 0.10525,6.875 -0.49985,10.08545 -4.10893,32.68299 -6.74407,42.22668 -1.49394,5.41061 -0.89233,6.52332 3.52699,6.52332 3.28557,0 3.56582,-0.49665 6.17192,-10.9375 2.44916,-9.81207 4.33393,-20.12187 5.65578,-30.9375 0.25207,-2.0625 0.53928,-0.375 0.63823,3.75 0.15495,6.459 -1.78916,22.89495 -4.31813,36.50642 -0.67279,3.62108 -0.40142,4.09 2.82171,4.87556 1.96135,0.47804 8.53621,2.75327 14.61081,5.05609 6.0746,2.30281 11.26629,4.18693 11.5371,4.18693 1.70674,0 13.97914,-27.15102 17.5152,-38.75 3.79556,-12.45023 3.7989,-8.58915 0.005,6.27867 -2.4927,9.76966 -6.67646,22.30258 -11.28691,33.81118 -0.53213,1.3283 0.22476,2.4259 2.3363,3.38799 3.52721,1.6071 3.80976,1.30895 12.47636,-13.16534 2.5728,-4.29687 4.88737,-7.8125 5.14351,-7.8125 0.54121,0 -4.58096,11.76057 -8.28094,19.01312 -1.3971,2.73853 -2.36031,5.11195 -2.14047,5.27427 2.00745,1.48219 15.89836,9.46261 16.47085,9.46261 0.40927,0 1.8577,-2.10937 3.21874,-4.6875 2.87603,-5.44788 3.4227,-3.48683 0.78667,2.82205 -1.74495,4.17628 -1.69511,4.37783 1.67634,6.77852 l 3.47476,2.47425 4.37543,-4.63117 c 6.68,-7.07041 15.75837,-18.73628 19.35031,-24.86546 1.77394,-3.02699 3.50481,-5.22415 3.84639,-4.88256 0.9868,0.9868 -8.00902,16.67786 -15.93959,27.80281 l -7.26119,10.18595 3.7267,3.56405 3.72672,3.56406 8.07887,-8.75 c 4.44338,-4.8125 12.073,-13.8125 16.9547,-20 9.14659,-11.59317 10.23651,-10.7881 2.73135,2.01752 -4.51514,7.7039 -16.97339,23.85521 -21.47015,27.83465 -2.6029,2.30343 -2.61043,2.41992 -0.36357,5.625 1.2619,1.80006 2.99128,5.42077 3.84308,8.04602 1.12778,3.47583 2.07238,4.57224 3.47532,4.03389 1.44635,-0.55503 1.59881,-0.34269 0.61163,0.85181 -0.72322,0.87511 -1.70913,3.70049 -2.19091,6.27861 -0.92047,4.92564 -1.70622,5.57903 -3.97764,3.30762 -1.00652,-1.00653 -4.47477,0.84238 -12.8179,6.83317 -6.2909,4.51719 -13.65745,9.46048 -16.37011,10.98506 -10.01029,5.6261 -3.79669,5.96237 15.0679,0.81543 36.17568,-9.87001 60.60016,-27.85116 70.93726,-52.22358 2.31193,-5.45093 2.75431,-5.98381 2.10056,-2.5302 -2.34735,12.4005 -7.08717,21.4148 -16.62753,31.62255 -11.05598,11.8294 -31.44595,23.97104 -52.97279,31.54375 -10.37375,3.64929 -12.63487,5.82018 -5,4.80047 12.06341,-1.61118 33.02027,-6.11193 40.83602,-8.77004 4.75669,-1.61774 8.85962,-2.73026 9.1176,-2.47228 1.09085,1.09087 -31.29152,13.09429 -46.03632,17.06465 -2.67014,0.71899 -4.8548,1.84808 -4.8548,2.50908 0,1.5337 -0.3056,1.5461 17.12347,-0.69493 34.17339,-4.39403 55.62467,-12.23893 77.25153,-28.2515 2.64857,-1.96101 2.09787,-1.02713 -1.875,3.17958 -7.63768,8.08721 -17.86958,14.8877 -33.47554,22.249 -12.46761,5.88095 -38.66399,15.27956 -52.21731,18.73427 -11.23058,2.86264 -8.81815,4.5394 11.31785,7.8665 28.38245,4.68967 57.77861,-0.71168 78.45262,-14.41515 2.79083,-1.84985 2.03248,-0.75428 -2.44263,3.52883 -13.63404,13.0491 -36.34245,19.08281 -75.07249,19.94706 -13.92188,0.31066 -25.3125,0.7359 -25.3125,0.94498 0,0.20908 1.6564,4.07193 3.68089,8.58413 2.02448,4.5122 4.25468,10.33027 4.95602,12.92903 l 1.27514,4.72502 -3.39353,-4.07376 c -1.86643,-2.24057 -4.03151,-4.0687 -4.81127,-4.0625 -0.77978,0.006 -5.84228,2.22096 -11.25,4.9217 -17.71306,8.84628 -36.31363,14.80004 -58.83483,18.83215 -16.52658,2.95885 -59.4932,4.3646 -77.87242,2.54776 z m 72.5,-3.83353 c 27.4761,-4.37638 51.93781,-13.13935 59.23954,-21.22148 6.78142,-7.50623 8.69977,-17.27254 5.08985,-25.91231 -3.04684,-7.29211 -15.02348,-22.42896 -27.99916,-35.38714 -22.73617,-22.70553 -48.69575,-39.49594 -70.08023,-45.32725 -8.45615,-2.30589 -58.47651,-5.23418 -89.375,-5.23218 -25.62176,10e-4 -50.17547,2.70397 -68.99301,7.59318 -6.71378,1.74439 -13.20251,2.91124 -14.41943,2.59301 -1.21691,-0.31824 -2.21256,-0.15827 -2.21256,0.35546 0,0.51374 -3.23438,1.65371 -7.1875,2.5333 -22.37208,4.97784 -49.0625,14.1513 -49.0625,16.86271 0,3.0886 10.55315,17.77265 19.23684,26.76687 27.18422,28.15628 65.53435,50.69767 109.51316,64.36947 21.69561,6.74456 37.49769,9.44896 80.625,13.79832 9.10389,0.91812 46.09129,-0.27343 55.625,-1.79196 z m 79.68529,-109.61776 c 6.35815,-3.13641 12.07696,-6.32512 12.70845,-7.08602 0.75198,-0.90609 -0.48678,-3.30082 -3.58998,-6.93999 l -4.73814,-5.55651 -15.78281,14.8438 c -8.68055,8.16409 -15.78281,15.26696 -15.78281,15.78416 0,1.2471 12.84874,-3.97336 27.18529,-11.04544 z m -15.85682,-11.08395 c 14.5489,-12.76826 15.01449,-13.33054 12.93803,-15.625 -2.84624,-3.14506 -4.03948,-3.00586 -7.05086,0.82249 -1.38555,1.76144 -6.94813,8.37081 -12.3613,14.6875 -8.98533,10.4851 -10.97278,13.3599 -9.2361,13.3599 0.34002,0 7.40963,-5.9602 15.71024,-13.24489 z m -19.58915,2.10749 c 1.09074,-0.90522 1.72718,-2.06004 1.41433,-2.56625 -0.31286,-0.50621 4.47459,-5.54545 10.63876,-11.19831 6.16418,-5.65287 11.20759,-11.02103 11.20759,-11.92925 0,-0.90823 -0.98438,-2.0323 -2.1875,-2.49795 -1.574,-0.6092 -3.06393,0.30839 -5.3125,3.27171 -7.10398,9.36214 -16.03655,19.16467 -17.23169,18.90991 -0.70318,-0.1499 -2.03561,0.69385 -2.96092,1.875 -1.4574,1.86035 -1.42378,1.98038 0.25152,0.89754 1.06365,-0.6875 0.92303,-0.31609 -0.3125,0.82536 -1.23552,1.14145 -2.24641,2.6848 -2.24641,3.42966 0,1.74282 4.17244,1.11291 6.73932,-1.01742 z m -2.98932,0.66545 c 0,-0.25956 0.98437,-1.24394 2.1875,-2.1875 1.98257,-1.55484 2.02679,-1.51062 0.47195,0.47195 -1.63296,2.08219 -2.65945,2.74435 -2.65945,1.71555 z m -3.0268,-9.82416 c 5.99719,-3.94442 23.04154,-20.20409 23.01199,-21.95258 C 406.38576,238.79797 393.39113,229.5 392.07488,229.5 c -0.88575,0 -16.90821,33.26966 -16.90821,35.10886 0,1.94261 1.84239,1.29176 8.2232,-2.90497 z m -12.38986,-7.8825 c 0,-0.83158 3.46875,-7.12452 7.70832,-13.9843 4.23959,-6.85979 7.70834,-13.05673 7.70834,-13.77098 0,-0.71425 -0.87139,-1.63302 -1.9364,-2.04171 -1.47958,-0.56776 -3.28994,2.19424 -7.67379,11.70764 -3.15556,6.84787 -6.21524,12.15536 -6.79927,11.7944 -0.58405,-0.36095 -0.6915,0.30896 -0.2388,1.4887 0.47452,1.23657 0.31607,1.83161 -0.37414,1.40503 -0.65849,-0.40696 -1.30251,0.532 -1.43118,2.08662 -0.13361,1.61432 0.46746,2.82655 1.40149,2.82655 0.89948,0 1.63543,-0.68038 1.63543,-1.51195 z m -254.58334,-1.81642 c 0,-1.60019 -4.72904,-15.3412 -7.59624,-22.07209 l -2.21172,-5.19212 -5.72102,2.05727 c -3.14656,1.13149 -5.72102,2.52284 -5.72102,3.09189 0,1.83197 7.70162,12.57574 12.9373,18.04758 4.84434,5.06285 8.3127,6.75994 8.3127,4.06747 z m 240.62645,-5.31747 c 10.40722,-13.9096 18.12355,-24.99509 18.12355,-26.03676 0,-1.12298 -6.53153,-4.90074 -8.47309,-4.90074 -0.60347,0 -2.95609,4.92187 -5.22801,10.9375 -2.27193,6.01562 -5.7436,14.15584 -7.71484,18.08935 -1.97124,3.93352 -3.58406,7.44915 -3.58406,7.8125 0,2.06909 2.55022,-0.11975 6.87645,-5.90185 z m -13.01365,-1.87966 c 9.35446,-11.71034 20.96363,-29.90735 19.66688,-30.82721 -0.22258,-0.15789 -3.09439,-1.28395 -6.38182,-2.50237 -6.70037,-2.48336 -9.64786,-1.98256 -9.64786,1.63923 0,2.0793 -8.18509,30.19846 -10.69192,36.73119 -1.60863,4.192 1.39211,2.04787 7.05472,-5.04084 z m -214.64826,2.50466 c -0.4582,-1.89063 -1.58783,-5.96875 -2.51028,-9.0625 -0.92246,-3.09375 -1.68329,-7.17188 -1.69073,-9.0625 -0.007,-1.89063 -0.57603,-3.4375 -1.26353,-3.4375 -0.6875,0 -1.25,-0.8614 -1.25,-1.91423 0,-1.05283 -0.82055,-2.22911 -1.82345,-2.61396 -2.02083,-0.77546 -10.67655,1.72355 -10.67655,3.08247 0,1.30422 9.77071,17.76652 13.2849,22.38322 3.92667,5.1586 7.10969,5.4941 5.92964,0.625 z m 17.03546,-1.5579 c 0,-2.10269 -6.12505,-30.29633 -6.70865,-30.87991 -0.30137,-0.30138 -2.81399,0.13096 -5.58359,0.96075 l -5.03563,1.50871 2.51464,6.39042 C 135.82891,234.47264 142.87892,247 144.69651,247 c 0.94609,0 1.72016,-0.56043 1.72016,-1.2454 z m 180.40179,-0.3171 c 0.81026,-0.85938 1.63321,-2.52389 1.82877,-3.69892 0.19557,-1.17503 2.61548,-6.71287 5.37758,-12.30631 2.7621,-5.59343 6.08998,-12.87938 7.3953,-16.191 2.08995,-5.30222 2.14458,-6.10886 0.4577,-6.75618 -4.26472,-1.63653 -5.13755,-0.23343 -10.40462,16.72547 -2.98257,9.60331 -5.8965,17.16785 -6.47537,16.81008 -0.57889,-0.35777 -0.68211,0.31476 -0.22941,1.4945 0.47348,1.23387 0.3157,1.83137 -0.37147,1.40668 -0.657,-0.40604 -1.19456,0.34543 -1.19456,1.66995 0,2.76423 1.48069,3.11053 3.61608,0.84573 z m -168.84788,-1.33333 c -5.68276,-0.54688 -0.47451,-6.65988 -1.83333,-11.76963 -1.35882,-5.10977 1.52942,-14.84219 1.52942,-16.73873 0,-4.4171 -1.20333,-5.0827 -7.39801,-4.09213 -9.20557,1.47203 -9.57222,2.47077 -4.57447,12.4607 4.41442,8.8239 20.38159,17.87141 23.07294,17.87141 0.79311,0 -0.93807,12.8765 -2.36847,3.78716 z m 49.17435,-4.87867 c -7.21583,5.63874 -29.50061,-3.3715 -19.08467,-11.07924 l 30.03906,-22.22874 3.93863,12.10374 c 4.29493,13.19868 12.61537,16.72874 15.08121,16.72874 0.88061,0 -3.83839,-0.26563 -3.15333,-1.8125 1.79018,-4.04221 4.73069,-33.42601 3.42574,-34.23253 -0.59956,-0.37055 -3.73606,-0.3621 -6.97001,0.0187 -3.23394,0.38088 -14.31739,1.61792 -24.62989,2.74897 -10.3125,1.13105 -19.16719,2.43896 -19.6771,2.90647 -0.90425,0.82906 21.96568,41.48188 1.91894,33.6404 -11.57642,-4.52823 10.76951,5.00675 19.11142,1.20591 z m 86.27803,-7.43135 c 7.05933,-7.5829 17.99371,-25.93284 17.99371,-30.19684 0,-2.25453 -11.11509,-3.32665 -34.61081,-3.33842 l -17.7358,-0.009 0.65113,15.9375 c 0.35813,8.76562 0.86847,16.64062 1.13408,17.5 0.74774,2.41922 6.16861,1.84462 8.66961,-0.91895 1.23513,-1.3648 3.21316,-6.56793 4.39565,-11.5625 l 2.14998,-9.08105 0.95208,10.625 c 0.99873,11.14531 2.35493,16.23974 4.71087,17.69579 1.96092,1.21191 7.08138,-1.70177 11.6895,-6.65164 z m 22.48701,-6.37271 c 8.60382,-13.10578 12.45705,-20.72894 11.11158,-21.983 -0.67644,-0.63047 -3.8339,-1.51758 -7.0166,-1.97135 l -5.78673,-0.82505 -0.86069,6.88866 c -0.47337,3.78876 -1.87011,11.12556 -3.10386,16.30399 -2.79934,11.74961 -1.29296,12.17218 5.6563,1.58675 z m -136.53116,2.51606 c 0.41455,-1.54688 0.76141,-7.23574 0.7708,-12.64193 l 0.0171,-9.82943 -5.9375,0.83814 c -7.9378,1.12048 -10.3125,1.88149 -10.3125,3.3048 0,2.35344 6.29186,16.61532 8.31768,18.85382 2.82787,3.12477 6.23337,2.87434 7.14446,-0.5254 z m 73.28786,-14.75118 0.625,-14.94071 -3.44301,0.002 -3.44302,0.002 0.73523,14.6875 c 0.85822,17.14506 1.20889,18.87898 3.37927,16.71005 0.94555,-0.94491 1.75812,-7.17628 2.14653,-16.46122 z M 997.7654,343.77084 c 0.06,-1.45619 0.3561,-1.75238 0.7552,-0.75522 0.361,0.90234 0.3166,1.98048 -0.099,2.39584 -0.4154,0.41536 -0.7108,-0.32292 -0.6566,-1.64062 z M 783.29163,292.20373 c -5.0286,-3.06667 -11.65261,-10.75761 -12.63442,-14.66944 -0.43758,-1.74343 -0.54045,-5.81123 -0.22862,-9.03958 1.63662,-16.94317 17.40707,-31.42524 42.86308,-39.36127 22.11913,-6.89578 28.89763,-7.71915 63.12503,-7.66775 26.9597,0.0405 34.3808,0.47275 48.125,2.80325 37.6904,6.39088 55.8699,12.25579 61.9504,19.98586 4.8408,6.15402 5.9458,17.63424 1.5345,15.94146 -4.6582,-1.78753 -33.7099,-3.43333 -47.8599,-2.7113 -30.4924,1.55593 -53.6627,6.98169 -97.3297,22.79157 -16.0929,5.82652 -32.39538,11.41038 -36.2277,12.40857 -9.62245,2.50633 -18.72673,2.31838 -23.31767,-0.48137 z M 562.96988,233.79199 c -8.05581,-4.01439 -15.52871,-12.06162 -35.30662,-38.0201 -42.14419,-55.31424 -69.31265,-82.35225 -108.74659,-108.22446 -45.64022,-29.944093 -95.52251,-47.926598 -157.5,-56.778552 -47.44399,-6.776204 -112.09401,-6.758229 -167.5,0.04657 -21.65628,2.659761 -51.41721,7.537739 -64.76507,10.615344 -10.78369,2.486387 -12.43617,2.093471 -3.35993,-0.798904 36.63358,-11.674226 86.02455,-21.229719 132.5,-25.634301 28.34805,-2.686609 76.03486,-3.672023 92.5,-1.911447 6.875,0.735126 19.53125,1.959277 28.125,2.720335 29.13496,2.580178 69.17135,9.622192 96.15391,16.912544 6.5841,1.77894 14.82611,3.999708 18.31559,4.93504 3.48946,0.935331 15.02071,4.592084 25.625,8.126118 75.7073,25.230583 129.36361,57.318083 167.22131,100.001563 19.50682,21.99336 25.78545,34.93417 25.75989,53.09326 -0.0255,18.14036 -8.37016,29.99751 -24.93899,35.43667 -10.69617,3.51131 -16.23416,3.3918 -24.0835,-0.51968 z M 137.76536,205.02084 c 0.06,-1.45619 0.35617,-1.75238 0.7552,-0.75522 0.36108,0.90234 0.31668,1.98047 -0.0986,2.39584 -0.41537,0.41537 -0.7108,-0.32292 -0.65652,-1.64062 z M 254.11403,165.75 c 0,-1.71875 0.28373,-2.42188 0.63049,-1.5625 0.34676,0.85937 0.34676,2.26562 0,3.125 -0.34676,0.85937 -0.63049,0.15625 -0.63049,-1.5625 z M 44.11404,159.5 c 0,-1.71875 0.28371,-2.42188 0.63048,-1.5625 0.34676,0.85937 0.34676,2.26562 0,3.125 -0.34677,0.85937 -0.63048,0.15625 -0.63048,-1.5625 z m 132.59263,-5 c 0,-2.40625 0.25725,-3.39063 0.57166,-2.1875 0.3144,1.20312 0.3144,3.17187 0,4.375 -0.31441,1.20312 -0.57166,0.21875 -0.57166,-2.1875 z"
     id="path4146"
     inkscape:connector-curvature="0"
     sodipodi:nodetypes="ssssssscssscccssscscccscsccsscsssssssssssssscssssscssscssccssssssscscssscccsssssssssssssscccssscsssscscscsscssscscccsccsssssssscssssscsssssssssssssscscsssssssssssssssscsssscsssssssscccssssccssccccsscssccssscsssssssssscsssssssssscsscscccsssssscssssssssssssssssssssssssssscscssccssssscsssssssssssscssscssssccscsssscsssssssssscsssssscscscssssscssssssssssssssssssscssssssscscssssssssscsssscssssscccscsssscssscccsscsssscssccssscssscscsssccccccsscccccccssssssssssssssssssssssssssssscscccsssssscsssss" />
  <path
     style="fill:#000000"
     d="m 254.27668,295.01365 c -0.13424,0.11208 -0.61253,1.91912 -1.06275,4.01575 -1.29601,6.03539 -3.99058,13.06131 -7.21681,18.81725 -1.47327,2.62849 -1.06855,2.55377 -5.89126,1.08762 -1.04662,-0.31818 -3.04933,-0.87526 -4.45051,-1.23799 -1.40117,-0.36272 -4.16969,-1.10143 -6.15225,-1.64157 -1.98256,-0.54015 -6.46725,-1.76117 -9.96596,-2.7134 -3.49874,-0.95223 -6.97413,-1.90167 -7.7231,-2.1099 -1.33145,-0.37015 -1.2634,-0.42515 3.05572,-2.47096 2.42961,-1.1508 8.81155,-4.1093 14.18209,-6.57439 5.37053,-2.46512 13.39305,-6.15577 17.82785,-8.2015 l 8.06324,-3.71948 -0.211,2.27245 c -0.11614,1.24983 -0.32094,2.3641 -0.45524,2.47612 z m -5.80656,-18.20605 c -3.18085,1.44712 -9.15786,4.2039 -13.28226,6.12623 -4.12439,1.92231 -8.76772,4.05431 -10.31849,4.73775 l -2.81961,1.24266 1.38523,-2.83702 c 1.33924,-2.74287 2.24308,-4.66972 8.30552,-17.70545 1.55342,-3.34028 3.27674,-7.01433 3.82957,-8.16454 2.61484,-5.44047 6.39699,-13.48798 6.73906,-14.33912 0.20947,-0.52123 0.51269,-0.929 0.67381,-0.90611 0.77912,0.11062 7.93037,13.7826 7.82163,14.95353 -0.008,0.0836 0.37246,1.22557 0.84497,2.53767 0.86157,2.39248 2.74286,10.37555 2.65225,11.25454 -0.0269,0.25777 -2.65085,1.65273 -5.83169,3.09986 z m -17.63155,59.35501 c -6.08875,5.14639 -14.77371,10.24663 -21.26632,12.48865 l -1.94041,0.67007 -0.62819,-0.97084 c -0.34554,-0.53397 -4.50948,-6.58242 -9.25326,-13.44101 -9.85789,-14.25258 -10.1578,-14.71029 -9.60444,-14.65892 0.2245,0.0212 1.43403,0.34066 2.68782,0.7107 1.25379,0.37002 3.80656,1.0855 5.67289,1.58993 1.8663,0.50443 6.15879,1.688 9.53889,2.63016 3.38008,0.94215 7.76909,2.14007 9.75334,2.66205 4.93193,1.29742 15.12252,4.12058 17.08359,4.73276 l 1.60608,0.50137 -3.64999,3.08508 z m -0.71764,-99.18195 c -1.84236,3.81965 -10.52916,22.23515 -12.17616,25.81265 l -0.8999,1.95471 -0.90047,-3.4327 c -0.49526,-1.888 -2.1201,-8.06822 -3.61078,-13.73387 -5.7654,-21.91277 -7.799,-29.93349 -7.62603,-30.07779 0.23769,-0.19786 5.46382,1.61242 9.23884,3.20053 6.0291,2.53641 18.04519,10.61511 17.85802,12.00638 -0.0374,0.27846 -0.88504,2.19998 -1.88352,4.27009 z m -20.00144,53.85142 c -1.67563,5.78376 -5.61739,11.02432 -10.64038,14.14628 -4.90336,3.04758 -9.42679,4.08899 -15.36543,3.53748 -6.90546,-0.64134 -11.80747,-3.24944 -16.41538,-8.73388 -2.8901,-3.43984 -4.2686,-6.2674 -5.32499,-10.92253 -0.78532,-3.46063 -0.2458,-9.94531 1.12341,-13.50264 3.95816,-10.28372 14.3704,-16.7945 25.24343,-15.78471 10.42936,0.96857 19.23739,8.84101 21.82057,19.50281 0.58331,2.40759 0.33271,9.08585 -0.44123,11.75719 z m -20.41611,61.66773 c -0.90169,0.0527 -2.94082,0.19334 -4.53139,0.3125 -4.35676,0.32637 -14.05682,-1.43573 -20.6528,-3.75177 -1.84063,-0.64629 -3.40555,-1.24645 -3.47759,-1.33366 -0.0719,-0.0874 0.64859,-8.00226 1.60152,-17.58893 l 1.73243,-17.43033 5.55511,8.07161 c 3.0553,4.4394 7.88227,11.45559 10.7266,15.59154 2.84434,4.13595 6.42273,9.32185 7.95201,11.52419 1.52926,2.20236 2.76993,4.11785 2.75703,4.25664 -0.0132,0.13877 -0.76116,0.29549 -1.66285,0.34818 z m 6.19912,-104.20632 c -1.49009,-1.14842 -17.32642,-12.42276 -30.69011,-21.84915 -3.70328,-2.61222 -6.88676,-4.91836 -7.07442,-5.12477 -0.18799,-0.20612 1.77512,-1.15941 4.36173,-2.1178 6.75912,-2.50434 13.43673,-3.86721 20.73581,-4.23205 1.80194,-0.09 3.71843,-0.24428 4.25887,-0.34269 1.12188,-0.20444 0.99003,-0.51785 2.8879,6.86591 0.69607,2.7081 2.57969,9.96135 4.18583,16.11833 1.60614,6.157 2.90581,11.34312 2.88814,11.52472 -0.0177,0.1816 -0.71686,-0.19753 -1.55375,-0.8425 z m -24.07334,2.01802 c -0.45369,0.0996 -3.7769,0.41018 -7.38491,0.69014 -3.60802,0.27997 -8.18663,0.64226 -10.17469,0.80506 -1.98805,0.1628 -5.24103,0.4269 -7.22882,0.58685 -9.29664,0.7481 -16.85459,1.38238 -19.63517,1.64781 -1.67537,0.15993 -3.03826,0.20617 -3.02866,0.10276 0.009,-0.10346 0.71677,-1.39745 1.57147,-2.87567 0.85473,-1.47823 1.55962,-2.7478 1.56644,-2.82132 0.007,-0.0735 1.0586,-1.67677 2.33728,-3.56279 2.64137,-3.89598 7.65078,-9.60812 11.42689,-13.02987 l 2.55809,-2.31804 7.95432,5.64689 c 4.37487,3.10578 10.52516,7.46058 13.6673,9.67736 3.14215,2.21676 6.04652,4.3093 6.45416,4.65009 0.71825,0.60045 0.71568,0.6252 -0.0834,0.80076 z m -18.70113,18.01221 c -0.69746,0.67995 -5.65857,5.60681 -11.02465,10.94855 -23.146,23.04103 -21.7569,21.73295 -22.23157,20.93466 -0.55956,-0.94105 -1.8383,-9.70129 -2.04539,-14.01206 -0.24966,-5.19708 0.276,-12.61638 1.03482,-14.60616 0.75303,-1.97461 0.70963,-1.95859 6.51031,-2.40409 3.12853,-0.24028 9.71642,-0.7702 20.15165,-1.62097 7.26497,-0.59227 8.70906,-0.68817 8.78986,-0.58368 0.0454,0.0593 -0.48756,0.66378 -1.18503,1.34375 z m -4.35279,47.2874 c -1.28385,13.15808 -2.45194,23.91284 -2.5959,23.89947 -1.03693,-0.0962 -9.63567,-8.06251 -12.56469,-11.64042 -2.14373,-2.61862 -6.45848,-9.07649 -7.37678,-11.0407 -0.21745,-0.46511 3.57751,-4.46129 12.8989,-13.58294 3.94845,-3.86383 10.44211,-10.40022 11.10354,-11.17659 0.36799,-0.43194 0.71411,-0.69471 0.7691,-0.58398 0.0549,0.11081 -0.95035,10.9671 -2.23347,24.12523 z"
     id="path4698"
     inkscape:connector-curvature="0" />
</svg>
