<?xml version="1.0" encoding="UTF-8" standalone="no"?>
<!-- Created with Inkscape (http://www.inkscape.org/) -->

<svg
   xmlns:dc="http://purl.org/dc/elements/1.1/"
   xmlns:cc="http://creativecommons.org/ns#"
   xmlns:rdf="http://www.w3.org/1999/02/22-rdf-syntax-ns#"
   xmlns:svg="http://www.w3.org/2000/svg"
   xmlns="http://www.w3.org/2000/svg"
   xmlns:sodipodi="http://sodipodi.sourceforge.net/DTD/sodipodi-0.dtd"
   xmlns:inkscape="http://www.inkscape.org/namespaces/inkscape"
   id="svg4136"
   version="1.1"
   inkscape:version="0.91 r13725"
   width="1000"
   height="526.25"
   viewBox="0 0 1000 526.25"
   sodipodi:docname="ojos-main-large-lens.svg">
  <metadata
     id="metadata4142">
    <rdf:RDF>
      <cc:Work
         rdf:about="">
        <dc:format>image/svg+xml</dc:format>
        <dc:type
           rdf:resource="http://purl.org/dc/dcmitype/StillImage" />
        <dc:title></dc:title>
      </cc:Work>
    </rdf:RDF>
  </metadata>
  <defs
     id="defs4140" />
  <sodipodi:namedview
     pagecolor="#ffffff"
     bordercolor="#666666"
     borderopacity="1"
     objecttolerance="10"
     gridtolerance="10"
     guidetolerance="10"
     inkscape:pageopacity="0"
     inkscape:pageshadow="2"
     inkscape:window-width="1366"
     inkscape:window-height="705"
     id="namedview4138"
     showgrid="false"
     inkscape:zoom="0.1875"
     inkscape:cx="-208.30944"
     inkscape:cy="102.00783"
     inkscape:window-x="-8"
     inkscape:window-y="-8"
     inkscape:window-maximized="1"
     inkscape:current-layer="svg4136" />
  <path
     style="fill:#000000;stroke:#0000ff"
     d="m 257.62814,315.78004 c -0.14277,0.12302 -0.64073,2.08028 -1.10654,4.34953 -1.34083,6.53234 -4.17013,14.15546 -7.57756,20.41673 -1.55606,2.85925 -1.12372,2.77225 -6.29302,1.26648 -1.1218,-0.32676 -3.26807,-0.89623 -4.76947,-1.26547 -1.50138,-0.36925 -4.46808,-1.12256 -6.59262,-1.67405 -2.12457,-0.55149 -6.93046,-1.79812 -10.67976,-2.77029 -3.74933,-0.97218 -7.47365,-1.9417 -8.27629,-2.15455 -1.42685,-0.37837 -1.35451,-0.4388 3.24975,-2.71429 2.59002,-1.28001 9.3938,-4.57279 15.11946,-7.31728 5.7257,-2.74449 14.27869,-6.85317 19.00666,-9.13038 l 8.59634,-4.14041 -0.20864,2.45516 c -0.11477,1.35034 -0.32551,2.55581 -0.46831,2.67882 z m -6.34733,-19.55169 c -3.3913,1.61156 -9.76348,4.68036 -14.16038,6.81953 -4.39692,2.13919 -9.34731,4.51278 -11.00085,5.27468 l -3.00645,1.38526 1.46027,-3.08286 c 1.41183,-2.98055 2.36411,-5.07377 8.75042,-19.23435 1.63644,-3.62849 3.45204,-7.61979 4.03472,-8.86953 2.75587,-5.91126 6.74074,-14.65377 7.10021,-15.57751 0.22013,-0.5657 0.54139,-1.01043 0.7139,-0.9883 0.83414,0.10701 8.58566,14.74551 8.47815,16.0106 -0.008,0.0904 0.40757,1.31646 0.92284,2.72466 0.93951,2.56776 3.01161,11.15137 2.92131,12.10116 -0.0265,0.27857 -2.82287,1.82503 -6.21414,3.43666 z m -18.41247,64.31918 c -6.47373,5.64877 -15.72464,11.28874 -22.65212,13.81027 l -2.07041,0.75361 -0.67921,-1.03757 c -0.37353,-0.57069 -4.87268,-7.0309 -9.99804,-14.35604 -10.65085,-15.22218 -10.97504,-15.71129 -10.38282,-15.66457 0.24031,0.0189 1.53638,0.34491 2.8802,0.72437 1.34378,0.37945 4.07956,1.11109 6.0795,1.6259 1.99996,0.51478 6.60003,1.72404 10.22237,2.68721 3.62234,0.96316 8.32573,2.18638 10.45194,2.71827 5.28485,1.322 16.20569,4.20716 18.30775,4.8367 l 1.72163,0.51561 -3.8808,3.38625 z m -1.51258,-107.00065 c -1.94186,4.1503 -11.09475,24.15672 -12.82944,28.04268 l -0.94783,2.12323 -0.98891,-3.68949 c -0.54394,-2.02924 -2.32825,-8.67172 -3.96519,-14.76113 -6.33113,-23.55166 -8.56648,-32.17349 -8.38255,-32.33191 0.25253,-0.21746 5.85609,1.65348 9.90567,3.30738 6.46767,2.64148 19.38048,11.16826 19.19074,12.67231 -0.038,0.30101 -0.9301,2.38765 -1.98249,4.63693 z m -20.98859,58.4185 c -1.74878,6.26684 -5.92542,11.98331 -11.27445,15.43103 -5.22159,3.36561 -10.05194,4.56062 -16.40791,4.05931 -7.39079,-0.58294 -12.65342,-3.31959 -17.62314,-9.16425 -3.11704,-3.66581 -4.61268,-6.69479 -5.77754,-11.70078 -0.86596,-3.72141 -0.33761,-10.72655 1.10012,-14.58636 4.15631,-11.15805 15.24405,-18.34716 26.88123,-17.42931 11.16229,0.88041 20.64228,9.23532 23.48528,20.69803 0.64201,2.58847 0.4241,9.7979 -0.38359,12.69233 z m -21.37337,66.85845 c -0.96404,0.0711 -3.14398,0.25502 -4.84433,0.40868 -4.65743,0.42092 -15.04566,-1.32718 -22.11796,-3.72193 -1.97356,-0.66827 -3.65188,-1.29109 -3.72958,-1.38406 -0.0774,-0.0931 0.63364,-8.64422 1.58067,-19.00278 l 1.72205,-18.83376 6.00224,8.62116 c 3.30123,4.74165 8.51676,12.23553 11.59007,16.65311 3.07329,4.41755 6.93963,9.95638 8.59183,12.30842 1.6522,2.35214 2.9936,4.39923 2.98087,4.54918 -0.0126,0.14992 -0.81196,0.3308 -1.77597,0.40195 z m 5.84769,-112.53087 c -1.60241,-1.21555 -18.62529,-13.12996 -32.98959,-23.0896 -3.98057,-2.75996 -7.40289,-5.1979 -7.60515,-5.41764 -0.20227,-0.21974 1.8899,-1.279 4.6493,-2.35385 7.21057,-2.80881 14.34258,-4.38463 22.14678,-4.89348 1.92664,-0.12562 3.97532,-0.32225 4.55261,-0.43698 1.19845,-0.23815 1.05503,-0.57436 3.14041,7.36237 0.76484,2.91089 2.83401,10.70703 4.59814,17.32472 1.76416,6.61772 3.19321,12.19272 3.17567,12.38896 -0.0174,0.19621 -0.76821,-0.2018 -1.66817,-0.8845 z m -25.73318,2.55736 c -0.4845,0.11464 -4.03657,0.50221 -7.89353,0.86119 -3.85695,0.35906 -8.75142,0.8222 -10.87657,1.02926 -2.12515,0.20706 -5.60247,0.54331 -7.72737,0.74727 -9.93788,0.95391 -18.01692,1.75755 -20.98896,2.08784 -1.79074,0.19898 -3.24813,0.2704 -3.23863,0.15869 0.01,-0.11168 0.75614,-1.51909 1.65924,-3.12749 0.90306,-1.60841 1.64747,-2.98937 1.65421,-3.06877 0.007,-0.0795 1.11967,-1.82587 2.47315,-3.88096 2.79588,-4.24525 8.1109,-10.4874 12.12405,-14.23893 l 2.71868,-2.54143 8.55016,5.96713 c 4.70261,3.28192 11.31353,7.88342 14.69095,10.22561 3.37742,2.34218 6.49959,4.55407 6.93813,4.91533 0.77274,0.63652 0.77016,0.66327 -0.0835,0.86525 z m -19.86699,19.7294 c -0.74088,0.74465 -6.01014,6.13878 -11.70946,11.98694 -24.58341,25.22539 -23.10745,23.79212 -23.62115,22.93828 -0.60552,-1.00651 -2.03909,-10.43813 -2.29295,-15.08595 -0.30606,-5.60342 0.20043,-13.61675 0.99709,-15.77559 0.79061,-2.14237 0.74432,-2.1244 6.9452,-2.69669 3.34441,-0.30865 10.3867,-0.98438 21.5416,-2.06704 7.76599,-0.75371 9.30983,-0.87997 9.39705,-0.7685 0.0495,0.063 -0.51652,0.72387 -1.2574,1.46851 z m -4.30048,51.08928 c -1.27425,14.21711 -2.44289,25.83936 -2.59695,25.82721 -1.10981,-0.0875 -10.36669,-8.54691 -13.52637,-12.36105 -2.31252,-2.79154 -6.97602,-9.6911 -7.97296,-11.79587 -0.23607,-0.49839 3.79291,-4.86999 13.69436,-14.85888 4.19413,-4.2312 11.09051,-11.38611 11.79211,-12.23421 0.39037,-0.47188 0.75856,-0.76084 0.81822,-0.64222 0.0596,0.11864 -0.93419,11.84789 -2.20851,26.065 z"
     id="path4698"
     inkscape:connector-curvature="0" />
  <path
     style="fill:#000000"
     d="m 714.13201,503.29153 c -1.73289,-22.32726 1.51119,-46.25666 9.08407,-67.00681 12.69176,-34.77629 40.12256,-60.49736 80.74476,-75.71216 11.2552,-4.21558 26.8354,-8.50302 37.4975,-10.31877 8.1838,-1.3937 39.5616,-0.83927 45.429,0.8027 6.2621,1.7524 7.7751,0.62845 10.3798,-7.71038 0.8067,-2.58255 1.7152,-4.44713 2.0188,-4.14348 0.3037,0.30365 -0.4063,3.43746 -1.5776,6.96404 -1.1713,3.52657 -1.8316,6.71005 -1.4673,7.07439 0.3644,0.36433 2.5006,0.74977 4.7472,0.85652 3.7958,0.18036 4.345,-0.32702 7.7656,-7.17427 2.0244,-4.0526 4.4437,-9.95885 5.376,-13.125 l 1.6953,-5.75664 -0.5909,5.89301 c -0.325,3.24116 -1.755,9.14741 -3.1777,13.125 -1.4228,3.9776 -2.7019,7.86419 -2.8425,8.63689 -0.1407,0.77269 4.7754,4.00411 10.9246,7.18095 8.4329,4.3567 11.4503,5.39371 12.2794,4.2201 2.3341,-3.30425 7.5927,-15.31945 9.1057,-20.80531 0.8723,-3.16285 1.6364,-4.57308 1.6978,-3.13383 0.1392,3.2575 -3.663,14.45618 -7.3854,21.75278 l -2.8056,5.49931 3.5889,2.87185 c 1.9739,1.5795 3.8702,2.87252 4.2139,2.87337 1.1397,0.002 12.0632,-14.26463 15.5891,-20.36125 1.9076,-3.29841 4.5391,-9.20466 5.8479,-13.125 2.0119,-6.02683 2.2601,-6.3558 1.6063,-2.12962 -1.2874,8.32222 -10.0174,26.67067 -17.2484,36.25175 -1.7492,2.31775 -1.5508,2.85859 2.7217,7.41889 4.5948,4.90433 4.5961,4.90895 0.45,1.5625 -2.2871,-1.84602 -5.1727,-3.35639 -6.4123,-3.35639 -2.5614,0 -12.5543,12.52264 -12.5543,15.7324 0,1.78229 0.9111,1.96881 6.1937,1.26805 7.5923,-1.00715 16.4986,-4.01878 18.1813,-6.14794 0.6875,-0.86991 3.317,-2.84355 5.8434,-4.38587 7.3008,-4.45708 17.9226,-16.84494 22.796,-26.5864 2.4671,-4.93138 4.4856,-8.31245 4.4856,-7.51353 0,2.49865 -8.5716,18.93036 -13.076,25.06654 -7.3803,10.05402 -16.4187,17.49215 -27.6524,22.75643 -5.8276,2.73088 -10.5123,5.63352 -10.4105,6.45029 0.6241,5.00699 -0.5823,8.80969 -4.0467,12.75539 -4.3582,4.96373 -9.5909,8.10464 -13.5023,8.10464 -1.8956,0 -2.5621,0.80824 -2.5621,3.10706 0,5.91128 -2.845,15.07508 -8.9312,28.76794 -3.3614,7.5625 -6.1144,14.875 -6.1177,16.25 -0.011,4.61699 -4.676,12.91925 -8.2904,14.75479 -19.1216,9.71069 -84.9502,-7.90535 -138.5357,-37.07275 -6.3346,-3.448 -23.125,-18.57012 -23.125,-20.82725 0,-3.12794 -2.63383,-0.67049 -5.04559,4.70771 -7.51157,16.75066 -10.06439,29.66666 -11.05591,55.9375 l -0.80203,21.25 -1.0478,-13.50014 z m 171.75683,-14.61961 c 6.8844,-1.91254 11.6891,-8.03559 19.9349,-25.40455 7.6009,-16.01058 7.6075,-16.0344 7.6795,-27.80869 0.064,-10.48651 -0.2832,-12.39067 -3.1541,-17.28957 -7.0675,-12.05965 -22.6477,-21.23735 -41.7102,-24.5698 -4.9882,-0.87203 -9.29,-1.35423 -9.5595,-1.07156 -0.2695,0.28266 0.042,3.87345 0.6929,7.97953 4.3182,27.25291 -11.6453,56.93935 -37.5444,69.81906 -5.0768,2.52468 -10.3268,4.59033 -11.6667,4.59033 -5.44,0 -0.8235,3.25549 8.4944,5.99013 26.1808,7.68356 55.052,11.03801 66.8331,7.76512 z m -74.7036,-16.35944 c 11.92,-3.99352 19.8598,-9.11026 28.5697,-18.41149 8.7028,-9.29371 13.6522,-18.0865 16.6389,-29.55945 2.1075,-8.09542 2.5751,-23.98541 0.7889,-26.80678 -1.3078,-2.06579 -16.938,-1.28837 -26.725,1.32926 l -5.8371,1.56119 -0.1263,7.55822 c -0.2027,12.13534 -0.4887,15.68324 -1.2643,15.68324 -0.4005,0 -2.5156,2.22401 -4.7,4.94226 l -3.9717,4.94226 4.075,4.69657 4.075,4.69657 -4.7546,-3.58836 c -4.7147,-3.55825 -4.7918,-3.57058 -9.1968,-1.47 -3.4853,1.66202 -4.2974,2.67226 -3.7699,4.68959 0.6325,2.41841 0.5365,2.44818 -1.6152,0.50098 -2.7045,-2.44756 -10.5278,-1.55447 -14.1548,1.61587 -2.0423,1.78513 -2.1717,1.77785 -1.458,-0.082 1.1233,-2.92745 -8.6449,-5.60142 -11.7086,-3.2051 -1.7991,1.40718 -1.8885,1.37376 -0.6386,-0.23863 1.1945,-1.54087 0.4847,-2.53499 -3.9831,-5.57854 -2.9901,-2.03695 -6.0227,-4.99007 -6.7392,-6.5625 -0.7164,-1.57243 -2.1207,-2.85897 -3.1207,-2.85897 -3.3527,0 -14.4855,15.72047 -14.4855,20.45485 0,3.25645 31.5347,20.11895 51.25,27.40486 3.2112,1.18671 4.8441,0.96895 12.8519,-1.7139 z m 3.6173,-57.89183 c 2.9669,-3.54922 2.8261,-6.88743 -0.4371,-10.36092 -3.3543,-3.57051 -5.6119,-3.68611 -6.6734,-0.3417 -0.4825,1.52032 -2.2951,2.84841 -4.4852,3.28645 -4.4858,0.89715 -5.3425,2.12333 -4.3226,6.18689 1.0106,4.0265 7.6762,7.0931 11.2548,5.1779 1.3562,-0.72581 3.4547,-2.50269 4.6635,-3.94863 z m 116.8528,-28.40599 c 7.1402,-5.50863 8.1112,-7.74303 4.2602,-9.80401 -4.2189,-2.25788 -6.0076,-1.44609 -10.6007,4.811 -8.0518,10.96872 -4.7625,13.55894 6.3405,4.99301 z m -16.6773,1.25602 c 3.9247,-2.00667 13.3553,-11.3374 13.3553,-13.21386 0,-1.66779 -8.7382,-6.67305 -11.5127,-6.59451 -1.4187,0.0401 -4.9496,4.65824 -10.9268,14.29142 -3.3123,5.33815 2.5137,8.87637 9.0842,5.51695 z m -9.1447,-11.21749 c 8.7889,-5.23137 9.9746,-10.12594 3.0099,-12.42449 -2.4855,-0.82031 -4.9447,-1.00309 -5.5085,-0.40945 -4.5512,4.79237 -10.0014,12.25298 -10.0014,13.69068 0,2.67753 7.4163,2.16921 12.5,-0.85674 z m -24.1228,-5.71408 c 4.8862,-5.24703 7.8144,-10.89753 6.3869,-12.325 -1.5363,-1.5363 -31.3292,-3.25306 -39.7641,-2.29134 l -9.375,1.0689 -0.3888,6.12906 c -0.2574,4.05693 0.1652,6.48044 1.25,7.16837 0.9013,0.57161 5.3925,1.04791 9.9804,1.05843 7.1661,0.0164 8.8836,-0.4369 12.1875,-3.21697 l 3.8459,-3.23613 0,4.23613 c 0,5.21823 1.8754,7.23611 6.7251,7.23611 2.8248,0 5.0368,-1.40849 9.1521,-5.82756 z m -51.3574,-2.1932 c 4.7606,-5.50959 5.526,-9.47924 1.8278,-9.47924 -2.6512,0 -21.2277,6.10789 -27.0199,8.88405 -2.0197,0.96799 -3.8713,2.7944 -4.1148,4.05869 -0.4107,2.1326 0.4794,2.2674 12.317,1.86548 l 12.7598,-0.43322 4.2301,-4.89576 z m 63.5635,1.1041 c 5.6169,-5.61683 5.8924,-9.33334 0.6921,-9.33334 -3.0806,0 -4.1612,0.85584 -6.25,4.9502 -4.8706,9.54726 -1.9274,11.86842 5.5579,4.38314 z m -630.5833,30.70701 c -62.42408,-6.17079 -123.00988,-29.95491 -163.567806,-64.21169 -12.42468,-10.49436 -21.89556,-21.36494 -31.21534,-35.82866 -3.76546,-5.84375 -9.34777,-13.41956 -12.40515,-16.83514 -8.54903,-9.55062 -19.77775,-27.23407 -27.80591,-43.78986 -7.28316,-15.01945 -18.112521,-42.93494 -17.063041,-43.98443 0.30694,-0.30695 1.24608,1.58899 2.08697,4.21318 7.0653,22.04892 34.975351,67.89625 41.332561,67.89625 3.60066,0 4.22714,-3.15596 1.41797,-7.14314 -5.00514,-7.10397 -16.43314,-27.8534 -20.93092,-38.00352 -6.44812,-14.55144 -10.15993,-25.71434 -13.82202,-41.56828 -3.427611,-14.83886 -3.466361,-19.22977 -0.0593,-6.72522 6.42212,23.57072 21.84527,58.02205 34.3335,76.69215 8.59676,12.8523 10.2128,14.53427 12.5667,13.07949 1.3213,-0.81662 0.95968,-2.58453 -1.77513,-8.6785 -1.88895,-4.20914 -4.01388,-7.65298 -4.72208,-7.65298 -0.70819,0 -0.96073,-0.3269 -0.56119,-0.72644 0.39954,-0.39953 -2.01409,-6.87702 -5.36362,-14.39442 -9.70145,-21.77308 -21.64865,-59.8433 -19.46523,-62.02673 0.28871,-0.2887 1.14079,2.34678 1.89352,5.85661 4.28453,19.97808 27.53938,68.03687 31.6828,65.47609 0.79982,-0.49431 0.96059,-0.22522 0.40374,0.67578 -0.52686,0.85247 0.49388,3.35778 2.37048,5.81813 3.25713,4.27032 7.23116,5.59897 8.86065,2.96239 1.19144,-1.92779 -3.21692,-11.14141 -5.33072,-11.14141 -0.96742,0 -1.40549,-0.57188 -0.97352,-1.27083 0.43198,-0.69896 -1.46351,-7.02708 -4.21221,-14.0625 -8.82017,-22.57563 -14.54187,-47.20114 -16.91306,-72.79167 -0.56491,-6.09669 -0.0171,-4.68935 2.92783,7.52157 1.99252,8.26187 6.12498,22.60562 9.18325,31.875 5.83504,17.68557 16.69457,42.47843 18.60599,42.47843 1.49565,0 11.02033,-4.88714 11.02033,-5.65455 0,-0.33205 -2.53125,-8.10339 -5.625,-17.26963 -6.82264,-20.21428 -7.36698,-25.36286 -0.74811,-7.07582 2.61278,7.21875 5.95723,15.48907 7.43211,18.37849 l 2.6816,5.25348 5.317196,-2.40866 c 2.92446,-1.32476 5.24701,-3.12634 5.16121,-4.00349 -0.0858,-0.87715 -1.36805,-6.63115 -2.84946,-12.78666 -4.3592,-18.11297 -6.3696,-34.56764 -6.3696,-52.13326 0,-9.05661 0.28585,-16.18071 0.63523,-15.83133 0.34938,0.34937 1.21428,5.36501 1.92201,11.14583 2.66347,21.7558 12.09162,63.78445 14.94968,66.64251 0.77988,0.77988 4.43683,0.19407 10.289,-1.64821 4.9935,-1.57196 10.90721,-3.40811 13.14159,-4.08035 4.57344,-1.37595 4.55001,-1.25171 2.9103,-15.43614 -1.10876,-9.59133 -2.83666,-57.62504 -1.79746,-49.96721 6.00401,44.24333 8.53273,59.10869 10.38016,61.02091 0.54247,0.5615 4.48973,0.2973 8.77165,-0.58712 l 7.78532,-1.60803 -0.68303,-19.41288 c -0.75818,-21.5486 -0.58662,-21.6898 2.32406,-1.91288 2.99097,20.32256 2.66124,19.375 6.74226,19.375 1.96522,0 4.13566,-0.70312 4.8232,-1.5625 0.68754,-0.85937 1.97768,-11.96122 2.86696,-24.67077 0.88929,-12.70957 1.79408,-22.55332 2.01063,-21.875 0.21656,0.6783 0.87579,10.70802 1.46496,22.28828 1.09719,21.56567 1.72908,23.81334 6.46349,22.9913 1.53084,-0.26581 1.98972,-3.64972 2.5,-18.43593 l 0.625,-18.11038 1.61275,12.5 c 0.88701,6.875 1.92541,14.82501 2.30756,17.66669 l 0.69481,5.16667 10.81744,-0.5521 c 16.26045,-0.82991 15.96805,-0.69913 16.93579,-7.57426 0.46117,-3.27635 1.23886,-12.42575 1.7282,-20.332 l 0.8897,-14.375 1.25688,20 1.25687,20 4.0625,0.3917 4.0625,0.3917 0.0137,-6.0167 c 0.008,-3.30919 0.41378,-8.2667 0.9027,-11.0167 0.82121,-4.61899 0.98686,-4.19035 2.17375,5.625 l 1.28479,10.625 23.125,0.85011 c 12.71875,0.46755 25.51562,1.10159 28.4375,1.40895 3.43232,0.36107 5.31927,0.0601 5.33164,-0.85011 0.0141,-1.03852 0.26058,-1.03651 0.9375,0.007 0.8565,1.32123 15.11253,4.93325 15.80725,4.00506 0.66586,-0.88962 5.63337,-14.45803 7.47657,-20.4217 1.85521,-6.00253 6.14326,-24.68195 7.46071,-32.5 0.34755,-2.0625 0.39495,1.03125 0.10525,6.875 -0.49985,10.08545 -4.10893,32.68299 -6.74407,42.22668 -1.49394,5.41061 -0.89233,6.52332 3.52699,6.52332 3.28557,0 3.56582,-0.49665 6.17192,-10.9375 2.44916,-9.81207 4.33393,-20.12187 5.65578,-30.9375 0.25207,-2.0625 0.53928,-0.375 0.63823,3.75 0.15495,6.459 -1.78916,22.89495 -4.31813,36.50642 -0.67279,3.62108 -0.40142,4.09 2.82171,4.87556 1.96135,0.47804 8.53621,2.75327 14.61081,5.05609 6.0746,2.30281 11.26629,4.18693 11.5371,4.18693 1.70674,0 13.97914,-27.15102 17.5152,-38.75 3.79556,-12.45023 3.7989,-8.58915 0.005,6.27867 -2.4927,9.76966 -6.67646,22.30258 -11.28691,33.81118 -0.53213,1.3283 0.22476,2.4259 2.3363,3.38799 3.52721,1.6071 3.80976,1.30895 12.47636,-13.16534 2.5728,-4.29687 4.88737,-7.8125 5.14351,-7.8125 0.54121,0 -4.58096,11.76057 -8.28094,19.01312 -1.3971,2.73853 -2.36031,5.11195 -2.14047,5.27427 2.00745,1.48219 15.89836,9.46261 16.47085,9.46261 0.40927,0 1.8577,-2.10937 3.21874,-4.6875 2.87603,-5.44788 3.4227,-3.48683 0.78667,2.82205 -1.74495,4.17628 -1.69511,4.37783 1.67634,6.77852 l 3.47476,2.47425 4.37543,-4.63117 c 6.68,-7.07041 15.75837,-18.73628 19.35031,-24.86546 1.77394,-3.02699 3.50481,-5.22415 3.84639,-4.88256 0.9868,0.9868 -8.00902,16.67786 -15.93959,27.80281 l -7.26119,10.18595 3.7267,3.56405 3.72672,3.56406 8.07887,-8.75 c 4.44338,-4.8125 12.073,-13.8125 16.9547,-20 9.14659,-11.59317 10.23651,-10.7881 2.73135,2.01752 -4.51514,7.7039 -16.97339,23.85521 -21.47015,27.83465 -2.6029,2.30343 -2.61043,2.41992 -0.36357,5.625 1.2619,1.80006 2.99128,5.42077 3.84308,8.04602 1.12778,3.47583 2.07238,4.57224 3.47532,4.03389 1.44635,-0.55503 1.59881,-0.34269 0.61163,0.85181 -0.72322,0.87511 -1.70913,3.70049 -2.19091,6.27861 -0.92047,4.92564 -1.70622,5.57903 -3.97764,3.30762 -1.00652,-1.00653 -4.47477,0.84238 -12.8179,6.83317 -6.2909,4.51719 -13.65745,9.46048 -16.37011,10.98506 -10.01029,5.6261 -3.79669,5.96237 15.0679,0.81543 36.17568,-9.87001 60.60016,-27.85116 70.93726,-52.22358 2.31193,-5.45093 2.75431,-5.98381 2.10056,-2.5302 -2.34735,12.4005 -7.08717,21.4148 -16.62753,31.62255 -11.05598,11.8294 -31.44595,23.97104 -52.97279,31.54375 -10.37375,3.64929 -12.63487,5.82018 -5,4.80047 12.06341,-1.61118 33.02027,-6.11193 40.83602,-8.77004 4.75669,-1.61774 8.85962,-2.73026 9.1176,-2.47228 1.09085,1.09087 -31.29152,13.09429 -46.03632,17.06465 -2.67014,0.71899 -4.8548,1.84808 -4.8548,2.50908 0,1.5337 -0.3056,1.5461 17.12347,-0.69493 34.17339,-4.39403 55.62467,-12.23893 77.25153,-28.2515 2.64857,-1.96101 2.09787,-1.02713 -1.875,3.17958 -7.63768,8.08721 -17.86958,14.8877 -33.47554,22.249 -12.46761,5.88095 -38.66399,15.27956 -52.21731,18.73427 -11.23058,2.86264 -8.81815,4.5394 11.31785,7.8665 28.38245,4.68967 57.77861,-0.71168 78.45262,-14.41515 2.79083,-1.84985 2.03248,-0.75428 -2.44263,3.52883 -13.63404,13.0491 -36.34245,19.08281 -75.07249,19.94706 -13.92188,0.31066 -25.3125,0.7359 -25.3125,0.94498 0,0.20908 1.6564,4.07193 3.68089,8.58413 2.02448,4.5122 4.25468,10.33027 4.95602,12.92903 l 1.27514,4.72502 -3.39353,-4.07376 c -1.86643,-2.24058 -4.03151,-4.0687 -4.81127,-4.0625 -0.77978,0.006 -5.84228,2.22096 -11.25,4.9217 -17.71306,8.84627 -36.31363,14.80004 -58.83483,18.83215 -16.52658,2.95885 -59.4932,4.3646 -77.87242,2.54776 z m 72.5,-3.83353 c 27.4761,-4.37638 51.93781,-13.13935 59.23954,-21.22148 6.78142,-7.50623 8.69977,-17.27254 5.08985,-25.91231 -3.04684,-7.29211 -15.02348,-22.42896 -27.99916,-35.38714 -22.73617,-22.70553 -48.69575,-39.49594 -70.08023,-45.32725 -8.45402,-2.30531 -58.46757,-5.23379 -89.375,-5.23323 -25.10442,4.5e-4 -48.87001,2.55735 -68.75,7.3967 -6.875,1.67357 -17.5625,4.22977 -23.75,5.68043 -26.286056,6.16281 -49.375006,14.0477 -49.375006,16.86159 0,3.0886 10.55316,17.77265 19.23685,26.76686 27.184216,28.15629 65.534346,50.69767 109.513156,64.36947 21.69561,6.74457 37.49769,9.44897 80.625,13.79832 9.10389,0.91812 46.09129,-0.27343 55.625,-1.79195 z m 79.68529,-109.61776 c 6.35815,-3.13641 12.07696,-6.32512 12.70845,-7.08602 0.75198,-0.90609 -0.48678,-3.30082 -3.58998,-6.93999 l -4.73814,-5.55651 -15.78281,14.8438 c -8.68055,8.16409 -15.78281,15.26696 -15.78281,15.78416 0,1.2471 12.84874,-3.97336 27.18529,-11.04544 z m -15.85682,-11.08395 c 14.5489,-12.76826 15.01449,-13.33054 12.93803,-15.625 -2.84624,-3.14506 -4.03948,-3.00586 -7.05086,0.82249 -1.38555,1.76144 -6.94813,8.37081 -12.3613,14.6875 -8.98533,10.4851 -10.97278,13.3599 -9.2361,13.3599 0.34002,0 7.40963,-5.9602 15.71024,-13.24489 z m -19.58915,2.10749 c 1.09074,-0.90522 1.72718,-2.06004 1.41433,-2.56625 -0.31286,-0.50621 4.47459,-5.54545 10.63876,-11.19831 6.16418,-5.65287 11.20759,-11.02103 11.20759,-11.92925 0,-0.90823 -0.98438,-2.0323 -2.1875,-2.49795 -1.574,-0.6092 -3.06393,0.30839 -5.3125,3.27171 -7.10398,9.36214 -16.03655,19.16467 -17.23169,18.90991 -0.70318,-0.1499 -2.03561,0.69385 -2.96092,1.875 -1.4574,1.86035 -1.42378,1.98038 0.25152,0.89754 1.06365,-0.6875 0.92303,-0.31609 -0.3125,0.82536 -1.23552,1.14145 -2.24641,2.6848 -2.24641,3.42966 0,1.74282 4.17244,1.11291 6.73932,-1.01742 z m -2.98932,0.66545 c 0,-0.25956 0.98437,-1.24394 2.1875,-2.1875 1.98257,-1.55484 2.02679,-1.51062 0.47195,0.47195 -1.63296,2.08219 -2.65945,2.74435 -2.65945,1.71555 z m -3.0268,-9.82416 c 5.99719,-3.94442 23.04154,-20.20409 23.01199,-21.95258 -0.0161,-0.95334 -13.01073,-10.25131 -14.32698,-10.25131 -0.88575,0 -16.90821,33.26966 -16.90821,35.10886 0,1.94261 1.84239,1.29176 8.2232,-2.90497 z m -12.38986,-7.8825 c 0,-0.83158 3.46875,-7.12452 7.70832,-13.9843 4.23959,-6.85979 7.70834,-13.05673 7.70834,-13.77098 0,-0.71425 -0.87139,-1.63302 -1.9364,-2.04171 -1.47958,-0.56776 -3.28994,2.19424 -7.67379,11.70764 -3.15556,6.84787 -6.21524,12.15536 -6.79927,11.7944 -0.58405,-0.36095 -0.6915,0.30896 -0.2388,1.4887 0.47452,1.23657 0.31607,1.83161 -0.37414,1.40503 -0.65849,-0.40696 -1.30251,0.532 -1.43118,2.08662 -0.13361,1.61432 0.46746,2.82655 1.40149,2.82655 0.89948,0 1.63543,-0.68038 1.63543,-1.51195 z m -13.95689,-7.13389 c 10.40722,-13.9096 18.12355,-24.99509 18.12355,-26.03676 0,-1.12298 -6.53153,-4.90074 -8.47309,-4.90074 -0.60347,0 -2.95609,4.92187 -5.22801,10.9375 -2.27193,6.01562 -5.7436,14.15584 -7.71484,18.08935 -1.97124,3.93352 -3.58406,7.44915 -3.58406,7.8125 0,2.06909 2.55022,-0.11975 6.87645,-5.90185 z m -13.01365,-1.87966 c 9.35446,-11.71034 20.96363,-29.90735 19.66688,-30.82721 -0.22258,-0.15789 -3.09439,-1.28395 -6.38182,-2.50237 -6.70037,-2.48336 -9.64786,-1.98256 -9.64786,1.63923 0,2.0793 -8.18509,30.19846 -10.69192,36.73119 -1.60863,4.192 1.39211,2.04787 7.05472,-5.04084 z m -17.21101,0.62966 c 0.81026,-0.85938 1.63321,-2.52389 1.82877,-3.69892 0.19557,-1.17503 2.61548,-6.71287 5.37758,-12.30631 2.7621,-5.59343 6.08998,-12.87938 7.3953,-16.191 2.08995,-5.30222 2.14458,-6.10886 0.4577,-6.75618 -4.26472,-1.63653 -5.13755,-0.23343 -10.40462,16.72547 -2.98257,9.60331 -5.8965,17.16785 -6.47537,16.81008 -0.57889,-0.35777 -0.68211,0.31476 -0.22941,1.4945 0.47348,1.23387 0.3157,1.83137 -0.37147,1.40668 -0.657,-0.40604 -1.19456,0.34543 -1.19456,1.66995 0,2.76423 1.48069,3.11053 3.61608,0.84573 z m -216.1484,-4.19636 c 0.77516,-2.02004 -1.07068,-10.6034 -3.098956,-14.41046 -1.00724,-1.89058 -1.51467,-1.89132 -6.7468,-0.01 -3.1117,1.11897 -5.6437,2.60142 -5.62665,3.29434 0.0171,0.69291 1.99126,3.93173 4.38714,7.19735 4.56319,6.21969 9.53057,7.98014 11.085266,3.92864 z m 14.25853,-2.67864 c 1.33232,-2.6498 0.42554,-12.8125 -1.14321,-12.8125 -0.61529,0 -1.11871,-0.8614 -1.11871,-1.91423 0,-1.05283 -0.82055,-2.22911 -1.82345,-2.61396 -1.90299,-0.73024 -10.67656,1.68779 -10.67656,2.9425 0,0.39624 1.99628,4.29013 4.43618,8.65306 4.59943,8.22455 8.09984,10.17214 10.32575,5.74513 z m 168.56167,-6.875 c 6.94692,-7.39956 17.92641,-25.82905 17.92641,-30.09019 0,-2.25581 -11.11718,-3.32666 -34.65824,-3.33842 l -17.78322,-0.009 0.7583,14.0625 c 0.63363,11.75076 1.17836,14.52485 3.31362,16.875 5.01997,5.52519 7.81175,2.94914 10.88892,-10.04749 l 2.13446,-9.01501 0.94069,10.625 c 1.19789,13.53017 1.97732,15 7.95425,15 3.69906,0 5.52993,-0.8725 8.52481,-4.0625 z m 22.41971,-6.26606 c 8.60382,-13.10578 12.45705,-20.72894 11.11157,-21.983 -0.67643,-0.63047 -3.8339,-1.51758 -7.0166,-1.97135 l -5.78672,-0.82505 -0.86069,6.88866 c -0.47337,3.78876 -1.87011,11.12556 -3.10386,16.30399 -2.79934,11.74961 -1.29296,12.17218 5.6563,1.58675 z m -176.27713,5.62192 c 2.47972,-1.69796 3.03363,-5.43712 1.63075,-11.00841 -0.76653,-3.04423 -1.68355,-5.53495 -2.0378,-5.53495 -0.35423,0 -2.77998,0.63994 -5.39053,1.42207 l -4.74647,1.42208 2.49348,6.32598 c 1.3714,3.47928 2.77212,6.77684 3.1127,7.32792 0.76804,1.2427 3.15719,1.26462 4.93787,0.0452 z m 113.03383,-17.85704 0.625,-14.94071 -3.44301,0.002 -3.44302,0.002 0.73523,14.6875 c 0.85822,17.14506 1.20889,18.87898 3.37927,16.71005 0.94555,-0.94491 1.75812,-7.17628 2.14653,-16.46122 z m -98.22863,11.17187 c 2.83294,-2.22839 3.29946,-3.45098 2.98107,-7.8125 l -0.37744,-5.17069 -5.4702,0.35291 c -3.00861,0.19412 -6.52365,0.91672 -7.81119,1.60579 -2.18672,1.17029 -2.21575,1.5526 -0.44057,5.80121 3.59267,8.59847 5.61791,9.54991 11.11834,5.22328 z m 62.65333,-10.35307 0.88501,-8.81265 3.1754,10.27877 c 2.78289,9.00823 3.5341,10.27876 6.0774,10.27876 4.61098,0 9.33375,-8.29423 10.35812,-18.19109 0.46726,-4.51435 0.41934,-8.4738 -0.1065,-8.79876 -0.97724,-0.60396 -15.67809,0.4344 -20.75167,1.46576 -2.69771,0.54839 -2.81172,1.09366 -2.79336,13.3604 0.0215,14.38655 1.73006,14.61331 3.15556,0.41881 z m -11.4696,4.69542 c 0.43719,-3.18972 0.7949,-8.25222 0.7949,-11.25 0,-4.88768 -0.30333,-5.45054 -2.93726,-5.45054 -2.87588,0 -2.92622,0.20247 -2.4081,9.6875 0.29105,5.32812 0.75141,10.39062 1.02304,11.25 1.05836,3.34846 2.76942,1.29321 3.52742,-4.23696 z m -31.5352,-3.67589 c 1.1373,-2.00731 2.45699,-4.94994 2.93264,-6.53918 0.82392,-2.75285 0.63796,-2.85116 -3.93135,-2.07836 -9.05489,1.53146 -9.45636,1.7848 -8.55473,5.39824 0.99463,3.98617 4.31208,7.9268 6.15584,7.31221 0.73139,-0.24379 2.2603,-2.0856 3.3976,-4.09291 z m 16.0801,2.14981 c 0,-1.27904 0.35771,-4.93529 0.7949,-8.125 0.72547,-5.29287 0.56814,-5.79946 -1.80123,-5.79946 -3.75095,0 -4.13416,1.38351 -2.55759,9.23377 1.34406,6.6926 3.56392,9.61429 3.56392,4.69069 z m 807.5987,126.59638 c 0.06,-1.45619 0.3562,-1.75238 0.7552,-0.75522 0.3611,0.90234 0.3167,1.98048 -0.099,2.39584 -0.4154,0.41536 -0.7108,-0.32292 -0.6565,-1.64062 z M 773.95834,298.8704 c -5.0286,-3.06667 -11.6526,-10.75761 -12.6345,-14.66944 -0.4375,-1.74343 -0.5404,-5.81123 -0.2286,-9.03958 1.6366,-16.94317 17.4071,-31.42524 42.8631,-39.36127 22.1192,-6.89578 28.8976,-7.71915 63.125,-7.66775 26.9598,0.0405 34.3808,0.47275 48.125,2.80325 37.6905,6.39088 55.87,12.25579 61.9504,19.98586 4.8408,6.15402 5.9459,17.63424 1.5346,15.94146 -4.6583,-1.78753 -33.71,-3.43333 -47.86,-2.7113 -30.4924,1.55593 -53.6627,6.98169 -97.3297,22.79157 -16.0929,5.82652 -32.3953,11.41038 -36.2277,12.40857 -9.6224,2.50633 -18.7267,2.31838 -23.3176,-0.48137 z M 553.63655,240.45866 c -8.05581,-4.01439 -15.52871,-12.06162 -35.30662,-38.0201 C 476.18574,147.12432 449.01728,120.08631 409.58334,94.2141 363.94312,64.27 314.06083,46.2875 252.08334,37.43554 204.63935,30.65934 139.98933,30.67732 84.583334,37.48214 62.927054,40.1419 33.166124,45.01988 19.818263,48.09748 9.0345734,50.58387 7.3820934,50.19095 16.458333,47.29858 53.091914,35.62435 102.48288,26.06886 148.95834,21.66428 c 28.34805,-2.68661 76.03486,-3.67203 92.5,-1.91145 6.875,0.73512 19.53125,1.95928 28.125,2.72033 29.13496,2.58018 69.17135,9.6222 96.15391,16.91255 6.5841,1.77894 14.82611,3.99971 18.31559,4.93504 3.48946,0.93533 15.02071,4.59208 25.625,8.12612 75.7073,25.23058 129.36361,57.31808 167.22131,100.00156 19.50682,21.99336 25.78545,34.93417 25.75989,53.09326 -0.0255,18.14036 -8.37016,29.99751 -24.93899,35.43667 -10.69617,3.51131 -16.23416,3.3918 -24.0835,-0.51968 z M 128.43203,211.68751 c 0.06,-1.45619 0.35617,-1.75238 0.7552,-0.75522 0.36108,0.90234 0.31668,1.98047 -0.0986,2.39584 -0.41537,0.41537 -0.7108,-0.32292 -0.65652,-1.64062 z M 244.7807,172.41667 c 0,-1.71875 0.28373,-2.42188 0.63049,-1.5625 0.34676,0.85937 0.34676,2.26562 0,3.125 -0.34676,0.85937 -0.63049,0.15625 -0.63049,-1.5625 z m -209.999996,-6.25 c 0,-1.71875 0.28371,-2.42188 0.63048,-1.5625 0.34677,0.85937 0.34677,2.26562 0,3.125 -0.34677,0.85937 -0.63048,0.15625 -0.63048,-1.5625 z m 132.592636,-5 c 0,-2.40625 0.25725,-3.39063 0.57166,-2.1875 0.3144,1.20312 0.3144,3.17187 0,4.375 -0.31441,1.20312 -0.57166,0.21875 -0.57166,-2.1875 z"
     id="path4146"
     inkscape:connector-curvature="0" />
</svg>
